# Blender v2.79 (sub 0) OBJ File: 'Planets.blend'
# www.blender.org
v -0.000000 0.242353 -0.000000
v 0.000000 0.216506 -0.125000
v 0.000000 0.176777 -0.176777
v 0.000000 0.125000 -0.216506
v 0.000000 0.064705 -0.241481
v 0.000000 0.000000 -0.250000
v 0.000000 -0.064705 -0.241481
v 0.000000 -0.125000 -0.216506
v 0.000000 -0.176777 -0.176777
v 0.000000 -0.216506 -0.125000
v -0.000000 -0.242353 -0.000000
v 0.000000 0.241481 -0.064705
v -0.000000 0.242353 -0.000000
v 0.047835 0.216506 -0.115485
v 0.067649 0.176777 -0.163320
v 0.082853 0.125000 -0.200026
v 0.092411 0.064705 -0.223100
v 0.095671 0.000000 -0.230970
v 0.092411 -0.064705 -0.223100
v 0.082853 -0.125000 -0.200026
v 0.067649 -0.176777 -0.163320
v 0.047835 -0.216506 -0.115485
v -0.000000 -0.242353 -0.000000
v -0.000000 0.242353 -0.000000
v 0.088388 0.216506 -0.088388
v 0.125000 0.176777 -0.125000
v 0.153093 0.125000 -0.153093
v 0.170753 0.064705 -0.170753
v 0.176777 0.000000 -0.176777
v 0.170753 -0.064705 -0.170753
v 0.153093 -0.125000 -0.153093
v 0.125000 -0.176777 -0.125000
v 0.088388 -0.216506 -0.088388
v -0.000000 -0.242353 -0.000000
v -0.000000 0.242353 -0.000000
v 0.115485 0.216506 -0.047835
v 0.163320 0.176777 -0.067650
v 0.200026 0.125000 -0.082853
v 0.223100 0.064705 -0.092411
v 0.230970 0.000000 -0.095671
v 0.223100 -0.064705 -0.092411
v 0.200026 -0.125000 -0.082853
v 0.163320 -0.176777 -0.067650
v 0.115485 -0.216506 -0.047835
v -0.000000 -0.242353 -0.000000
v -0.000000 0.242353 -0.000000
v 0.125000 0.216506 -0.000000
v 0.176777 0.176777 -0.000000
v 0.216506 0.125000 -0.000000
v 0.241481 0.064705 -0.000000
v 0.250000 0.000000 -0.000000
v 0.241481 -0.064705 -0.000000
v 0.216506 -0.125000 -0.000000
v 0.176777 -0.176777 -0.000000
v 0.125000 -0.216506 -0.000000
v -0.000000 -0.242353 -0.000000
v -0.000000 0.242353 -0.000000
v 0.115485 0.216506 0.047835
v 0.163320 0.176777 0.067649
v 0.200026 0.125000 0.082853
v 0.223100 0.064705 0.092411
v 0.230970 0.000000 0.095671
v 0.223100 -0.064705 0.092411
v 0.200026 -0.125000 0.082853
v 0.163320 -0.176777 0.067649
v 0.115485 -0.216506 0.047835
v -0.000000 -0.242353 -0.000000
v -0.000000 0.242353 -0.000000
v 0.088388 0.216506 0.088388
v 0.125000 0.176777 0.125000
v 0.153093 0.125000 0.153093
v 0.170753 0.064705 0.170753
v 0.176777 0.000000 0.176777
v 0.170753 -0.064705 0.170753
v 0.153093 -0.125000 0.153093
v 0.125000 -0.176777 0.125000
v 0.088388 -0.216506 0.088388
v -0.000000 -0.242353 -0.000000
v -0.000000 0.242353 -0.000000
v 0.047835 0.216506 0.115485
v 0.067649 0.176777 0.163320
v 0.082853 0.125000 0.200026
v 0.092411 0.064705 0.223100
v 0.095671 0.000000 0.230970
v 0.092411 -0.064705 0.223100
v 0.082853 -0.125000 0.200026
v 0.067649 -0.176777 0.163320
v 0.047835 -0.216506 0.115485
v -0.000000 -0.242353 -0.000000
v -0.000000 0.242353 -0.000000
v -0.000000 0.216506 0.125000
v -0.000000 0.176777 0.176776
v -0.000000 0.125000 0.216506
v -0.000000 0.064705 0.241481
v -0.000000 0.000000 0.250000
v -0.000000 -0.064705 0.241481
v -0.000000 -0.125000 0.216506
v -0.000000 -0.176777 0.176776
v -0.000000 -0.216506 0.125000
v -0.000000 -0.242353 -0.000000
v -0.000000 0.242353 -0.000000
v -0.047835 0.216506 0.115485
v -0.067650 0.176777 0.163320
v -0.082853 0.125000 0.200026
v -0.092411 0.064705 0.223099
v -0.095671 0.000000 0.230970
v -0.092411 -0.064705 0.223099
v -0.082853 -0.125000 0.200026
v -0.067650 -0.176777 0.163320
v -0.047835 -0.216506 0.115485
v -0.000000 -0.242353 -0.000000
v -0.000000 0.242353 -0.000000
v -0.088388 0.216506 0.088388
v -0.125000 0.176777 0.125000
v -0.153093 0.125000 0.153093
v -0.170753 0.064705 0.170753
v -0.176777 0.000000 0.176776
v -0.170753 -0.064705 0.170753
v -0.153093 -0.125000 0.153093
v -0.125000 -0.176777 0.125000
v -0.088388 -0.216506 0.088388
v -0.000000 -0.242353 -0.000000
v -0.000000 0.242353 -0.000000
v -0.115485 0.216506 0.047835
v -0.163320 0.176777 0.067649
v -0.200026 0.125000 0.082853
v -0.223100 0.064705 0.092411
v -0.230970 0.000000 0.095671
v -0.223100 -0.064705 0.092411
v -0.200026 -0.125000 0.082853
v -0.163320 -0.176777 0.067649
v -0.115485 -0.216506 0.047835
v -0.000000 -0.242353 -0.000000
v -0.000000 0.242353 -0.000000
v -0.125000 0.216506 -0.000000
v -0.176777 0.176777 -0.000000
v -0.216506 0.125000 -0.000000
v -0.241481 0.064705 -0.000000
v -0.250000 0.000000 -0.000000
v -0.241481 -0.064705 -0.000000
v -0.216506 -0.125000 -0.000000
v -0.176777 -0.176777 -0.000000
v -0.125000 -0.216506 -0.000000
v -0.000000 -0.242353 -0.000000
v -0.000000 0.242353 -0.000000
v -0.115485 0.216506 -0.047836
v -0.163320 0.176777 -0.067650
v -0.200026 0.125000 -0.082854
v -0.223100 0.064705 -0.092411
v -0.230970 0.000000 -0.095671
v -0.223100 -0.064705 -0.092411
v -0.200026 -0.125000 -0.082854
v -0.163320 -0.176777 -0.067650
v -0.115485 -0.216506 -0.047836
v -0.000000 -0.242353 -0.000000
v -0.000000 0.242353 -0.000000
v -0.088388 0.216506 -0.088388
v -0.125000 0.176777 -0.125000
v -0.153093 0.125000 -0.153093
v -0.170753 0.064705 -0.170753
v -0.176776 0.000000 -0.176777
v -0.170753 -0.064705 -0.170753
v -0.153093 -0.125000 -0.153093
v -0.125000 -0.176777 -0.125000
v -0.088388 -0.216506 -0.088388
v -0.000000 -0.242353 -0.000000
v -0.000000 0.242353 -0.000000
v -0.047835 0.216506 -0.115485
v -0.067649 0.176777 -0.163320
v -0.082853 0.125000 -0.200026
v -0.092411 0.064705 -0.223100
v -0.095671 0.000000 -0.230970
v -0.092411 -0.064705 -0.223100
v -0.082853 -0.125000 -0.200026
v -0.067649 -0.176777 -0.163320
v -0.047835 -0.216506 -0.115485
v 0.000000 -0.242353 -0.000000
v 0.000000 -0.241481 -0.064705
v 0.024761 -0.241481 -0.059779
v 0.045753 -0.241481 -0.045753
v 0.059779 -0.241481 -0.024762
v 0.064705 -0.241481 -0.000000
v 0.059779 -0.241481 0.024761
v 0.045753 -0.241481 0.045753
v 0.024761 -0.241481 0.059779
v -0.000000 -0.241481 0.064705
v -0.024761 -0.241481 0.059779
v -0.045753 -0.241481 0.045753
v -0.059779 -0.241481 0.024761
v -0.064705 -0.241481 -0.000000
v -0.059779 -0.241481 -0.024762
v -0.045753 -0.241481 -0.045753
v -0.024761 -0.241481 -0.059779
v 0.024761 0.241481 -0.059779
v 0.045753 0.241481 -0.045753
v 0.059779 0.241481 -0.024761
v 0.064705 0.241481 -0.000000
v 0.059779 0.241481 0.024761
v 0.045753 0.241481 0.045753
v 0.024761 0.241481 0.059779
v -0.000000 0.241481 0.064705
v -0.024761 0.241481 0.059779
v -0.045753 0.241481 0.045753
v -0.059779 0.241481 0.024761
v -0.064705 0.241481 -0.000000
v -0.059779 0.241481 -0.024762
v -0.045753 0.241481 -0.045753
v -0.024761 0.241481 -0.059779
vt 1.000000 0.250000
vt 1.000000 0.333333
vt 0.937500 0.333333
vt 0.937500 0.250000
vt 1.000000 0.500000
vt 1.000000 0.583333
vt 0.937500 0.583333
vt 0.937500 0.500000
vt 1.000000 0.750000
vt 1.000000 0.833333
vt 0.937500 0.833333
vt 0.937500 0.750000
vt 1.000000 0.166667
vt 0.937500 0.166667
vt 1.000000 0.416667
vt 0.937500 0.416667
vt 1.000000 0.666667
vt 0.937500 0.666667
vt 1.000000 0.083333
vt 0.937500 0.083333
vt 0.937500 0.916667
vt 0.875000 0.916667
vt 0.875000 0.833333
vt 1.000000 0.916667
vt 1.000000 1.000000
vt 0.937500 1.000000
vt 0.875000 0.750000
vt 0.875000 0.666667
vt 0.875000 0.166667
vt 0.875000 0.083333
vt 0.875000 0.416667
vt 0.875000 0.333333
vt 0.875000 0.583333
vt 0.812500 0.916667
vt 0.812500 0.833333
vt 0.875000 1.000000
vt 0.875000 0.250000
vt 0.875000 0.500000
vt 0.812500 0.583333
vt 0.812500 0.500000
vt 0.812500 0.750000
vt 0.812500 0.250000
vt 0.812500 0.166667
vt 0.812500 0.416667
vt 0.812500 0.666667
vt 0.812500 0.083333
vt 0.812500 0.333333
vt 0.750000 0.916667
vt 0.750000 0.833333
vt 0.812500 1.000000
vt 0.750000 0.666667
vt 0.750000 0.583333
vt 0.687500 0.916667
vt 0.687500 0.833333
vt 0.750000 1.000000
vt 0.750000 0.333333
vt 0.750000 0.250000
vt 0.750000 0.500000
vt 0.750000 0.750000
vt 0.750000 0.166667
vt 0.750000 0.416667
vt 0.750000 0.083333
vt 0.687500 0.500000
vt 0.687500 0.416667
vt 0.687500 0.750000
vt 0.687500 0.666667
vt 0.687500 0.166667
vt 0.687500 0.083333
vt 0.687500 0.333333
vt 0.687500 0.583333
vt 0.625000 0.916667
vt 0.625000 0.833333
vt 0.687500 1.000000
vt 0.687500 0.250000
vt 0.625000 0.583333
vt 0.625000 0.500000
vt 0.625000 0.750000
vt 0.625000 0.250000
vt 0.625000 0.166667
vt 0.625000 0.416667
vt 0.625000 0.666667
vt 0.625000 0.083333
vt 0.625000 0.333333
vt 0.562500 0.916667
vt 0.562500 0.833334
vt 0.625000 1.000000
vt 0.562500 0.416667
vt 0.562500 0.333333
vt 0.562500 0.666667
vt 0.562500 0.583333
vt 0.500000 0.916667
vt 0.500000 0.833334
vt 0.562500 1.000000
vt 0.562500 0.250000
vt 0.562500 0.500000
vt 0.562500 0.750000
vt 0.562500 0.166667
vt 0.562500 0.083333
vt 0.500000 0.500000
vt 0.500000 0.416667
vt 0.500000 0.750000
vt 0.500000 0.666667
vt 0.500000 0.166667
vt 0.500000 0.083333
vt 0.500000 0.333333
vt 0.500000 0.583333
vt 0.437500 0.916667
vt 0.437500 0.833334
vt 0.500000 1.000000
vt 0.500000 0.250000
vt 0.437500 0.333333
vt 0.437500 0.250000
vt 0.437500 0.583333
vt 0.437500 0.500000
vt 0.437500 0.750000
vt 0.437500 0.166667
vt 0.437500 0.416667
vt 0.437500 0.666667
vt 0.437500 0.083333
vt 0.375000 0.916667
vt 0.375000 0.833334
vt 0.437500 1.000000
vt 0.375000 0.416667
vt 0.375000 0.333333
vt 0.375000 0.666667
vt 0.375000 0.583333
vt 0.312500 0.916667
vt 0.312500 0.833334
vt 0.375000 1.000000
vt 0.375000 0.250000
vt 0.375000 0.500000
vt 0.375000 0.750000
vt 0.375000 0.166667
vt 0.375000 0.083333
vt 0.312500 0.250000
vt 0.312500 0.166667
vt 0.312500 0.500000
vt 0.312500 0.416667
vt 0.312500 0.750000
vt 0.312500 0.666667
vt 0.312500 0.083333
vt 0.312500 0.333333
vt 0.312500 0.583333
vt 0.250000 0.916667
vt 0.250000 0.833333
vt 0.312500 1.000000
vt 0.250000 1.000000
vt 0.250000 0.333333
vt 0.250000 0.250000
vt 0.250000 0.583333
vt 0.250000 0.500000
vt 0.250000 0.750000
vt 0.250000 0.166667
vt 0.250000 0.416667
vt 0.250000 0.666667
vt 0.250000 0.083333
vt 0.187500 0.916667
vt 0.187500 0.833333
vt 0.187500 0.166667
vt 0.187500 0.083333
vt 0.187500 0.416667
vt 0.187500 0.333333
vt 0.187500 0.666667
vt 0.187500 0.583333
vt 0.125000 0.916667
vt 0.125000 0.833333
vt 0.187500 1.000000
vt 0.187500 0.250000
vt 0.187500 0.500000
vt 0.187500 0.750000
vt 0.125000 0.750000
vt 0.125000 0.250000
vt 0.125000 0.166667
vt 0.125000 0.500000
vt 0.125000 0.416667
vt 0.125000 0.666667
vt 0.125000 0.083333
vt 0.125000 0.333333
vt 0.125000 0.583333
vt 0.062500 0.916667
vt 0.062500 0.833333
vt 0.125000 1.000000
vt 1.062500 0.833333
vt 1.062500 0.916667
vt 0.062500 1.000000
vt 0.062500 0.333333
vt 0.062500 0.250000
vt 0.062500 0.583333
vt 0.062500 0.500000
vt 0.062500 0.750000
vt 0.062500 0.166667
vt 0.062500 0.416667
vt 0.062500 0.666667
vt 0.062500 0.083333
vt 0.000000 0.750000
vt 0.000000 0.666667
vt 0.000000 0.166667
vt 0.000000 0.083333
vt 0.000000 0.416667
vt 0.000000 0.333333
vt 0.000000 0.583333
vt 1.062500 1.000000
vt 0.000000 0.250000
vt 0.000000 0.500000
vt 0.000000 0.833333
vt 0.062500 0.000000
vt 0.000000 0.000000
vt 0.125000 0.000000
vt 0.187500 0.000000
vt 0.250000 0.000000
vt 0.312500 0.000000
vt 0.375000 0.000000
vt 0.437500 0.000000
vt 0.500000 0.000000
vt 0.562500 0.000000
vt 0.625000 0.000000
vt 0.687500 0.000000
vt 0.750000 0.000000
vt 0.812500 0.000000
vt 0.875000 0.000000
vt 0.937500 0.000000
vt 1.000000 0.000000
vn 0.0000 -0.6991 -0.7150
vn 0.0000 -0.4931 -0.8700
vn 0.3329 -0.4931 -0.8037
vn 0.2736 -0.6991 -0.6606
vn 0.0000 0.0000 -1.0000
vn 0.0000 0.2548 -0.9670
vn 0.3700 0.2548 -0.8934
vn 0.3827 0.0000 -0.9239
vn 0.0000 0.6991 -0.7150
vn 0.0000 0.8589 -0.5120
vn 0.1959 0.8589 -0.4730
vn 0.2736 0.6991 -0.6606
vn 0.0000 -0.8589 -0.5120
vn 0.1959 -0.8589 -0.4730
vn 0.0000 -0.2548 -0.9670
vn 0.3700 -0.2548 -0.8934
vn 0.0000 0.4931 -0.8700
vn 0.3329 0.4931 -0.8037
vn 0.0000 -0.9745 -0.2240
vn 0.0857 -0.9745 -0.2070
vn 0.0857 0.9745 -0.2070
vn 0.1584 0.9745 -0.1584
vn 0.3620 0.8589 -0.3620
vn 0.0000 0.9745 -0.2240
vn 0.0000 0.9999 -0.0135
vn 0.0053 0.9999 -0.0124
vn 0.5056 0.6991 -0.5056
vn 0.6152 0.4931 -0.6152
vn 0.3620 -0.8589 -0.3620
vn 0.1584 -0.9745 -0.1584
vn 0.6837 -0.2548 -0.6837
vn 0.6152 -0.4931 -0.6152
vn 0.6837 0.2548 -0.6837
vn 0.2070 0.9745 -0.0857
vn 0.4730 0.8589 -0.1959
vn 0.0078 0.9999 -0.0113
vn 0.5056 -0.6991 -0.5056
vn 0.7071 0.0000 -0.7071
vn 0.8934 0.2548 -0.3700
vn 0.9239 0.0000 -0.3827
vn 0.6606 0.6991 -0.2736
vn 0.6606 -0.6991 -0.2736
vn 0.4730 -0.8589 -0.1959
vn 0.8934 -0.2548 -0.3700
vn 0.8037 0.4931 -0.3329
vn 0.2070 -0.9745 -0.0857
vn 0.8037 -0.4931 -0.3329
vn 0.2240 0.9745 0.0000
vn 0.5120 0.8589 0.0000
vn 0.0125 0.9999 -0.0051
vn 0.8700 0.4931 0.0000
vn 0.9670 0.2548 0.0000
vn 0.2070 0.9745 0.0857
vn 0.4730 0.8589 0.1959
vn 0.0135 0.9999 -0.0010
vn 0.8700 -0.4931 0.0000
vn 0.7150 -0.6991 0.0000
vn 1.0000 0.0000 0.0000
vn 0.7150 0.6991 0.0000
vn 0.5120 -0.8589 0.0000
vn 0.9670 -0.2548 0.0000
vn 0.2240 -0.9745 0.0000
vn 0.9239 0.0000 0.3827
vn 0.8934 -0.2548 0.3700
vn 0.6606 0.6991 0.2736
vn 0.8037 0.4931 0.3329
vn 0.4730 -0.8589 0.1959
vn 0.2070 -0.9745 0.0857
vn 0.8037 -0.4931 0.3329
vn 0.8934 0.2548 0.3700
vn 0.1584 0.9745 0.1584
vn 0.3620 0.8589 0.3620
vn 0.0126 0.9999 0.0047
vn 0.6606 -0.6991 0.2736
vn 0.6837 0.2548 0.6837
vn 0.7071 0.0000 0.7071
vn 0.5056 0.6991 0.5056
vn 0.5056 -0.6991 0.5056
vn 0.3620 -0.8589 0.3620
vn 0.6837 -0.2548 0.6837
vn 0.6152 0.4931 0.6152
vn 0.1584 -0.9745 0.1584
vn 0.6152 -0.4931 0.6152
vn 0.0857 0.9745 0.2070
vn 0.1959 0.8589 0.4730
vn 0.0085 0.9999 0.0106
vn 0.3700 -0.2548 0.8934
vn 0.3329 -0.4931 0.8037
vn 0.3329 0.4931 0.8037
vn 0.3700 0.2548 0.8934
vn 0.0000 0.9745 0.2240
vn 0.0000 0.8589 0.5120
vn 0.0030 0.9999 0.0133
vn 0.2736 -0.6991 0.6606
vn 0.3827 0.0000 0.9239
vn 0.2736 0.6991 0.6606
vn 0.1959 -0.8589 0.4730
vn 0.0857 -0.9745 0.2070
vn 0.0000 0.0000 1.0000
vn 0.0000 -0.2548 0.9670
vn 0.0000 0.6991 0.7150
vn 0.0000 0.4931 0.8700
vn 0.0000 -0.8589 0.5120
vn 0.0000 -0.9745 0.2241
vn 0.0000 -0.4931 0.8700
vn 0.0000 0.2548 0.9670
vn -0.0857 0.9745 0.2070
vn -0.1959 0.8589 0.4730
vn 0.0026 0.9999 0.0135
vn 0.0000 -0.6991 0.7150
vn -0.3329 -0.4931 0.8037
vn -0.2736 -0.6991 0.6606
vn -0.3700 0.2548 0.8934
vn -0.3827 0.0000 0.9239
vn -0.2736 0.6991 0.6606
vn -0.1959 -0.8589 0.4730
vn -0.3700 -0.2548 0.8934
vn -0.3329 0.4931 0.8037
vn -0.0857 -0.9745 0.2070
vn -0.1584 0.9745 0.1584
vn -0.3620 0.8589 0.3620
vn -0.0047 0.9999 0.0126
vn -0.6837 -0.2548 0.6837
vn -0.6152 -0.4931 0.6152
vn -0.6152 0.4931 0.6152
vn -0.6837 0.2548 0.6837
vn -0.2070 0.9745 0.0857
vn -0.4730 0.8589 0.1959
vn -0.0105 0.9999 0.0086
vn -0.5056 -0.6991 0.5056
vn -0.7071 0.0000 0.7071
vn -0.5056 0.6991 0.5056
vn -0.3620 -0.8589 0.3620
vn -0.1584 -0.9745 0.1584
vn -0.6606 -0.6991 0.2736
vn -0.4730 -0.8589 0.1959
vn -0.9239 0.0000 0.3827
vn -0.8934 -0.2548 0.3700
vn -0.6606 0.6991 0.2736
vn -0.8037 0.4931 0.3329
vn -0.2070 -0.9745 0.0857
vn -0.8037 -0.4931 0.3329
vn -0.8934 0.2548 0.3700
vn -0.2240 0.9745 0.0000
vn -0.5120 0.8589 0.0000
vn -0.0117 0.9999 0.0070
vn -0.0135 0.9999 0.0000
vn -0.8700 -0.4931 0.0000
vn -0.7150 -0.6991 0.0000
vn -0.9670 0.2548 0.0000
vn -1.0000 0.0000 0.0000
vn -0.7150 0.6991 0.0000
vn -0.5120 -0.8589 0.0000
vn -0.9670 -0.2548 0.0000
vn -0.8700 0.4931 0.0000
vn -0.2241 -0.9745 0.0000
vn -0.2070 0.9745 -0.0857
vn -0.4730 0.8589 -0.1959
vn -0.4730 -0.8589 -0.1959
vn -0.2070 -0.9745 -0.0857
vn -0.8934 -0.2548 -0.3700
vn -0.8037 -0.4931 -0.3329
vn -0.8037 0.4931 -0.3329
vn -0.8934 0.2548 -0.3700
vn -0.1584 0.9745 -0.1584
vn -0.3620 0.8589 -0.3620
vn -0.0117 0.9999 -0.0068
vn -0.6606 -0.6991 -0.2736
vn -0.9239 0.0000 -0.3827
vn -0.6606 0.6991 -0.2736
vn -0.5056 0.6991 -0.5056
vn -0.5056 -0.6991 -0.5056
vn -0.3620 -0.8589 -0.3620
vn -0.7071 0.0000 -0.7071
vn -0.6837 -0.2548 -0.6837
vn -0.6152 0.4931 -0.6152
vn -0.1584 -0.9745 -0.1584
vn -0.6152 -0.4931 -0.6152
vn -0.6837 0.2548 -0.6837
vn -0.0857 0.9745 -0.2070
vn -0.1959 0.8589 -0.4730
vn -0.0111 0.9999 -0.0079
vn -0.0050 0.9999 -0.0125
vn -0.3329 -0.4931 -0.8037
vn -0.2736 -0.6991 -0.6606
vn -0.3700 0.2548 -0.8934
vn -0.3827 0.0000 -0.9239
vn -0.2736 0.6991 -0.6606
vn -0.1959 -0.8589 -0.4730
vn -0.3700 -0.2548 -0.8934
vn -0.3329 0.4931 -0.8037
vn -0.0857 -0.9745 -0.2070
vn -0.0042 -0.9999 -0.0128
vn -0.0024 -0.9999 -0.0135
vn -0.0091 -0.9999 -0.0099
vn -0.0123 -0.9999 -0.0055
vn -0.0135 -0.9999 0.0000
vn -0.0131 -0.9999 0.0035
vn -0.0096 -0.9999 0.0094
vn -0.0034 -0.9999 0.0131
vn -0.0009 -0.9999 0.0135
vn 0.0051 -0.9999 0.0124
vn 0.0095 -0.9999 0.0095
vn 0.0127 -0.9999 0.0044
vn 0.0135 -0.9999 -0.0023
vn 0.0131 -0.9999 -0.0035
vn 0.0107 -0.9999 -0.0084
vn 0.0051 -0.9999 -0.0124
s 1
f 9/1/1 8/2/2 20/3/3 21/4/4
f 6/5/5 5/6/6 17/7/7 18/8/8
f 3/9/9 2/10/10 14/11/11 15/12/12
f 10/13/13 9/1/1 21/4/4 22/14/14
f 7/15/15 6/5/5 18/8/8 19/16/16
f 4/17/17 3/9/9 15/12/12 16/18/18
f 178/19/19 10/13/13 22/14/14 179/20/20
f 8/2/2 7/15/15 19/16/16 20/3/3
f 5/6/6 4/17/17 16/18/18 17/7/7
f 14/11/11 194/21/21 195/22/22 25/23/23
f 12/24/24 1/25/25 13/26/26 194/21/21
f 16/18/18 15/12/12 26/27/27 27/28/28
f 179/20/20 22/14/14 33/29/29 180/30/30
f 20/3/3 19/16/16 30/31/31 31/32/32
f 17/7/7 16/18/18 27/28/28 28/33/33
f 25/23/23 195/22/22 196/34/34 36/35/35
f 194/21/21 13/26/26 24/36/36 195/22/22
f 21/4/4 20/3/3 31/32/32 32/37/37
f 18/8/8 17/7/7 28/33/33 29/38/38
f 15/12/12 14/11/11 25/23/23 26/27/27
f 22/14/14 21/4/4 32/37/37 33/29/29
f 19/16/16 18/8/8 29/38/38 30/31/31
f 29/38/38 28/33/33 39/39/39 40/40/40
f 26/27/27 25/23/23 36/35/35 37/41/41
f 33/29/29 32/37/37 43/42/42 44/43/43
f 30/31/31 29/38/38 40/40/40 41/44/44
f 27/28/28 26/27/27 37/41/41 38/45/45
f 180/30/30 33/29/29 44/43/43 181/46/46
f 31/32/32 30/31/31 41/44/44 42/47/47
f 28/33/33 27/28/28 38/45/45 39/39/39
f 36/35/35 196/34/34 197/48/48 47/49/49
f 195/22/22 24/36/36 35/50/50 196/34/34
f 32/37/37 31/32/32 42/47/47 43/42/42
f 39/39/39 38/45/45 49/51/51 50/52/52
f 47/49/49 197/48/48 198/53/53 58/54/54
f 196/34/34 35/50/50 46/55/55 197/48/48
f 43/42/42 42/47/47 53/56/56 54/57/57
f 40/40/40 39/39/39 50/52/52 51/58/58
f 37/41/41 36/35/35 47/49/49 48/59/59
f 44/43/43 43/42/42 54/57/57 55/60/60
f 41/44/44 40/40/40 51/58/58 52/61/61
f 38/45/45 37/41/41 48/59/59 49/51/51
f 181/46/46 44/43/43 55/60/60 182/62/62
f 42/47/47 41/44/44 52/61/61 53/56/56
f 52/61/61 51/58/58 62/63/63 63/64/64
f 49/51/51 48/59/59 59/65/65 60/66/66
f 182/62/62 55/60/60 66/67/67 183/68/68
f 53/56/56 52/61/61 63/64/64 64/69/69
f 50/52/52 49/51/51 60/66/66 61/70/70
f 58/54/54 198/53/53 199/71/71 69/72/72
f 197/48/48 46/55/55 57/73/73 198/53/53
f 54/57/57 53/56/56 64/69/69 65/74/74
f 51/58/58 50/52/52 61/70/70 62/63/63
f 48/59/59 47/49/49 58/54/54 59/65/65
f 55/60/60 54/57/57 65/74/74 66/67/67
f 62/63/63 61/70/70 72/75/75 73/76/76
f 59/65/65 58/54/54 69/72/72 70/77/77
f 66/67/67 65/74/74 76/78/78 77/79/79
f 63/64/64 62/63/63 73/76/76 74/80/80
f 60/66/66 59/65/65 70/77/77 71/81/81
f 183/68/68 66/67/67 77/79/79 184/82/82
f 64/69/69 63/64/64 74/80/80 75/83/83
f 61/70/70 60/66/66 71/81/81 72/75/75
f 69/72/72 199/71/71 200/84/84 80/85/85
f 198/53/53 57/73/73 68/86/86 199/71/71
f 65/74/74 64/69/69 75/83/83 76/78/78
f 75/83/83 74/80/80 85/87/87 86/88/88
f 72/75/75 71/81/81 82/89/89 83/90/90
f 80/85/85 200/84/84 201/91/91 91/92/92
f 199/71/71 68/86/86 79/93/93 200/84/84
f 76/78/78 75/83/83 86/88/88 87/94/94
f 73/76/76 72/75/75 83/90/90 84/95/95
f 70/77/77 69/72/72 80/85/85 81/96/96
f 77/79/79 76/78/78 87/94/94 88/97/97
f 74/80/80 73/76/76 84/95/95 85/87/87
f 71/81/81 70/77/77 81/96/96 82/89/89
f 184/82/82 77/79/79 88/97/97 185/98/98
f 85/87/87 84/95/95 95/99/99 96/100/100
f 82/89/89 81/96/96 92/101/101 93/102/102
f 185/98/98 88/97/97 99/103/103 186/104/104
f 86/88/88 85/87/87 96/100/100 97/105/105
f 83/90/90 82/89/89 93/102/102 94/106/106
f 91/92/92 201/91/91 202/107/107 102/108/108
f 200/84/84 79/93/93 90/109/109 201/91/91
f 87/94/94 86/88/88 97/105/105 98/110/110
f 84/95/95 83/90/90 94/106/106 95/99/99
f 81/96/96 80/85/85 91/92/92 92/101/101
f 88/97/97 87/94/94 98/110/110 99/103/103
f 98/110/110 97/105/105 108/111/111 109/112/112
f 95/99/99 94/106/106 105/113/113 106/114/114
f 92/101/101 91/92/92 102/108/108 103/115/115
f 99/103/103 98/110/110 109/112/112 110/116/116
f 96/100/100 95/99/99 106/114/114 107/117/117
f 93/102/102 92/101/101 103/115/115 104/118/118
f 186/104/104 99/103/103 110/116/116 187/119/119
f 97/105/105 96/100/100 107/117/117 108/111/111
f 94/106/106 93/102/102 104/118/118 105/113/113
f 102/108/108 202/107/107 203/120/120 113/121/121
f 201/91/91 90/109/109 101/122/122 202/107/107
f 108/111/111 107/117/117 118/123/123 119/124/124
f 105/113/113 104/118/118 115/125/125 116/126/126
f 113/121/121 203/120/120 204/127/127 124/128/128
f 202/107/107 101/122/122 112/129/129 203/120/120
f 109/112/112 108/111/111 119/124/124 120/130/130
f 106/114/114 105/113/113 116/126/126 117/131/131
f 103/115/115 102/108/108 113/121/121 114/132/132
f 110/116/116 109/112/112 120/130/130 121/133/133
f 107/117/117 106/114/114 117/131/131 118/123/123
f 104/118/118 103/115/115 114/132/132 115/125/125
f 187/119/119 110/116/116 121/133/133 188/134/134
f 121/133/133 120/130/130 131/135/135 132/136/136
f 118/123/123 117/131/131 128/137/137 129/138/138
f 115/125/125 114/132/132 125/139/139 126/140/140
f 188/134/134 121/133/133 132/136/136 189/141/141
f 119/124/124 118/123/123 129/138/138 130/142/142
f 116/126/126 115/125/125 126/140/140 127/143/143
f 124/128/128 204/127/127 205/144/144 135/145/145
f 203/120/120 112/129/129 123/146/146 204/127/127
f 120/130/130 119/124/124 130/142/142 131/135/135
f 117/131/131 116/126/126 127/143/143 128/137/137
f 114/132/132 113/121/121 124/128/128 125/139/139
f 204/127/127 123/146/146 134/147/147 205/144/144
f 131/135/135 130/142/142 141/148/148 142/149/149
f 128/137/137 127/143/143 138/150/150 139/151/151
f 125/139/139 124/128/128 135/145/145 136/152/152
f 132/136/136 131/135/135 142/149/149 143/153/153
f 129/138/138 128/137/137 139/151/151 140/154/154
f 126/140/140 125/139/139 136/152/152 137/155/155
f 189/141/141 132/136/136 143/153/153 190/156/156
f 130/142/142 129/138/138 140/154/154 141/148/148
f 127/143/143 126/140/140 137/155/155 138/150/150
f 135/145/145 205/144/144 206/157/157 146/158/158
f 190/156/156 143/153/153 154/159/159 191/160/160
f 141/148/148 140/154/154 151/161/161 152/162/162
f 138/150/150 137/155/155 148/163/163 149/164/164
f 146/158/158 206/157/157 207/165/165 157/166/166
f 205/144/144 134/147/147 145/167/167 206/157/157
f 142/149/149 141/148/148 152/162/162 153/168/168
f 139/151/151 138/150/150 149/164/164 150/169/169
f 136/152/152 135/145/145 146/158/158 147/170/170
f 143/153/153 142/149/149 153/168/168 154/159/159
f 140/154/154 139/151/151 150/169/169 151/161/161
f 137/155/155 136/152/152 147/170/170 148/163/163
f 147/170/170 146/158/158 157/166/166 158/171/171
f 154/159/159 153/168/168 164/172/172 165/173/173
f 151/161/161 150/169/169 161/174/174 162/175/175
f 148/163/163 147/170/170 158/171/171 159/176/176
f 191/160/160 154/159/159 165/173/173 192/177/177
f 152/162/162 151/161/161 162/175/175 163/178/178
f 149/164/164 148/163/163 159/176/176 160/179/179
f 157/166/166 207/165/165 208/180/180 168/181/181
f 206/157/157 145/167/167 156/182/182 207/165/165
f 153/168/168 152/162/162 163/178/178 164/172/172
f 150/169/169 149/164/164 160/179/179 161/174/174
f 168/183/181 208/184/180 12/24/24 2/10/10
f 207/165/165 156/182/182 167/185/183 208/180/180
f 164/172/172 163/178/178 174/186/184 175/187/185
f 161/174/174 160/179/179 171/188/186 172/189/187
f 158/171/171 157/166/166 168/181/181 169/190/188
f 165/173/173 164/172/172 175/187/185 176/191/189
f 162/175/175 161/174/174 172/189/187 173/192/190
f 159/176/176 158/171/171 169/190/188 170/193/191
f 192/177/177 165/173/173 176/191/189 193/194/192
f 163/178/178 162/175/175 173/192/190 174/186/184
f 160/179/179 159/176/176 170/193/191 171/188/186
f 170/193/191 169/190/188 3/195/9 4/196/17
f 193/194/192 176/191/189 10/197/13 178/198/19
f 174/186/184 173/192/190 7/199/15 8/200/2
f 171/188/186 170/193/191 4/196/17 5/201/6
f 2/10/10 12/24/24 194/21/21 14/11/11
f 208/184/180 167/202/183 1/25/25 12/24/24
f 175/187/185 174/186/184 8/200/2 9/203/1
f 172/189/187 171/188/186 5/201/6 6/204/5
f 169/190/188 168/181/181 2/205/10 3/195/9
f 176/191/189 175/187/185 9/203/1 10/197/13
f 173/192/190 172/189/187 6/204/5 7/199/15
f 177/206/193 193/194/192 178/198/19 11/207/194
f 166/208/195 192/177/177 193/194/192 177/206/193
f 155/209/196 191/160/160 192/177/177 166/208/195
f 144/210/197 190/156/156 191/160/160 155/209/196
f 133/211/198 189/141/141 190/156/156 144/210/197
f 122/212/199 188/134/134 189/141/141 133/211/198
f 111/213/200 187/119/119 188/134/134 122/212/199
f 100/214/201 186/104/104 187/119/119 111/213/200
f 89/215/202 185/98/98 186/104/104 100/214/201
f 78/216/203 184/82/82 185/98/98 89/215/202
f 67/217/204 183/68/68 184/82/82 78/216/203
f 56/218/205 182/62/62 183/68/68 67/217/204
f 45/219/206 181/46/46 182/62/62 56/218/205
f 34/220/207 180/30/30 181/46/46 45/219/206
f 23/221/208 179/20/20 180/30/30 34/220/207
f 11/222/194 178/19/19 179/20/20 23/221/208
