# Blender v2.79 (sub 0) OBJ File: 'Target1.blend'
# www.blender.org
v -0.000000 0.000824 0.448496
v -0.000000 0.062241 -0.314668
v -0.185078 -0.046247 -0.073652
v 0.058672 -0.030173 -0.175839
v -0.125657 -0.038691 -0.314668
v 0.125657 -0.038691 -0.314668
v 0.185078 -0.046247 -0.073652
v -0.058672 -0.030173 -0.175839
v -0.000000 -0.100766 -0.170568
v -0.000000 0.102414 -0.170568
v -0.000000 0.016955 -0.187401
v -0.000000 -0.047456 -0.187401
v -0.000000 -0.075706 -0.314668
v -0.000000 0.002825 -0.054602
v -0.080185 0.002825 0.046330
v 0.080185 0.002825 0.046330
v -0.000000 0.002825 0.144007
v -0.000000 0.149564 0.045516
vn -0.2656 -0.9437 0.1973
vn 0.5705 0.2831 -0.7710
vn 0.5957 0.7616 0.2552
vn 0.0000 0.0000 -1.0000
vn 0.2017 -0.9665 0.1586
vn -0.5777 0.8054 0.1322
vn 0.5777 0.8054 0.1322
vn -0.2017 -0.9665 0.1586
vn -0.5705 0.2831 -0.7710
vn 0.4703 -0.4477 -0.7605
vn -0.4703 -0.4477 -0.7605
vn 0.2656 -0.9437 0.1973
vn -0.5957 0.7616 0.2552
vn 0.0000 -1.0000 0.0000
vn -0.7208 0.3907 -0.5726
vn 0.7208 0.3907 -0.5726
vn 0.7111 0.3918 0.5838
vn -0.7111 0.3918 0.5838
s off
f 12//1 8//1 5//1 13//1
f 10//2 7//2 4//2 11//2
f 11//3 4//3 6//3 2//3
f 5//4 2//4 13//4
f 9//5 7//5 1//5
f 10//6 3//6 1//6
f 7//7 10//7 1//7
f 3//8 9//8 1//8
f 3//9 10//9 11//9 8//9
f 7//10 9//10 12//10 4//10
f 9//11 3//11 8//11 12//11
f 13//4 2//4 6//4
f 4//12 12//12 13//12 6//12
f 8//13 11//13 2//13 5//13
f 15//14 14//14 17//14
f 17//14 14//14 16//14
f 15//15 18//15 14//15
f 14//16 18//16 16//16
f 16//17 18//17 17//17
f 17//18 18//18 15//18
